<svg xmlns="http://www.w3.org/2000/svg" viewBox="0 0 24 24" enable-background="new 0 0 24 24">
    <path style="text-indent:0;text-align:start;line-height:normal;text-transform:none;block-progression:tb;-inkscape-font-specification:Bitstream Vera Sans" d="M 12 1 C 5.9367124 1 1 5.9367124 1 12 C 1 18.063287 5.9367123 23 12 23 C 18.063287 23 23 18.063287 23 12 C 23 5.9367123 18.063287 1 12 1 z M 12 3 C 16.982407 3 21 7.0175927 21 12 C 21 16.982407 16.982407 21 12 21 C 7.0175927 21 3 16.982407 3 12 C 3 7.0175926 7.0175926 3 12 3 z M 17.40625 8.1875 L 11 14.5625 L 7.71875 11.28125 L 6.28125 12.71875 L 10.28125 16.71875 L 11 17.40625 L 11.71875 16.71875 L 18.8125 9.59375 L 17.40625 8.1875 z" color="#000" overflow="visible" enable-background="accumulate" font-family="Bitstream Vera Sans"/>
</svg>