<svg xmlns="http://www.w3.org/2000/svg" viewBox="0 0 26 26" enable-background="new 0 0 26 26">
    <path d="M 13.8125 0 C 7.8786193 0 4.082636 4.2947912 4 10 L 0.5 10 C 0.3 10 0.09375 10.1125 0.09375 10.3125 C -0.00625 10.5125 -0.00625 10.7125 0.09375 10.8125 L 6.09375 18.5 C 6.19375 18.6 6.3 18.6875 6.5 18.6875 C 6.7 18.6875 6.80625 18.6 6.90625 18.5 L 12.90625 10.8125 C 13.00625 10.7125 13.00625 10.5125 12.90625 10.3125 C 12.80625 10.1125 12.6 10 12.5 10 L 9 10 C 9.0653806 2.4665806 12.920166 0.78778717 13.8125 0.09375 C 14.0125 -0.00625 14.0125 0 13.8125 0 z M 19.5 7.34375 C 19.35 7.34375 19.19375 7.4 19.09375 7.5 L 13.09375 15.1875 C 12.99375 15.3875 13 15.5875 13 15.6875 C 13.1 15.8875 13.30625 16 13.40625 16 L 17 16 C 16.934619 23.533419 13.079834 25.212213 12.1875 25.90625 C 11.9875 26.00625 11.9875 26 12.1875 26 C 18.121381 26 21.917364 21.705209 22 16 L 25.40625 16 C 25.60625 16 25.8125 15.8875 25.8125 15.6875 C 26.0125 15.4875 26.00625 15.2875 25.90625 15.1875 L 19.90625 7.5 C 19.80625 7.4 19.65 7.34375 19.5 7.34375 z"/>
</svg>